<?xml version="1.0" encoding="utf-8"?>
<!-- Generator: Adobe Illustrator 19.2.0, SVG Export Plug-In . SVG Version: 6.00 Build 0)  -->
<svg version="1.1" id="Layer_1" xmlns="http://www.w3.org/2000/svg" xmlns:xlink="http://www.w3.org/1999/xlink" x="0px" y="0px"
	 viewBox="0 0 40 40" style="enable-background:new 0 0 40 40;" xml:space="preserve">
<style type="text/css">
	.st0{fill:#231F20;}
</style>
<g>
	<g>
		<path class="st0" d="M16.4,28.4c-6.7,0-12.1-5.4-12.1-12.1c0-6.7,5.4-12.1,12.1-12.1s12.1,5.4,12.1,12.1
			C28.5,22.9,23,28.4,16.4,28.4z M16.4,6.1c-5.6,0-10.1,4.5-10.1,10.1s4.5,10.1,10.1,10.1s10.1-4.5,10.1-10.1S21.9,6.1,16.4,6.1z"/>
	</g>
	<path class="st0" d="M33.3,35.9c-0.6,0-1.3-0.2-1.8-0.7l-7.8-7.8c-1-1-1-2.6,0-3.5s2.6-1,3.5,0l7.8,7.8c1,1,1,2.6,0,3.5
		C34.5,35.6,33.9,35.9,33.3,35.9z"/>
</g>
</svg>
